<svg xmlns="http://www.w3.org/2000/svg" viewBox="0 0 420 150" role="img" aria-label="Maya signature">
  <rect width="420" height="150" fill="none"/>
  <path d="M21 96 C63 66, 76 62, 100 94 C123 124, 138 122, 152 78 C165 39, 172 43, 179 84 C184 116, 199 112, 219 79 C236 51, 246 49, 248 78 C251 117, 272 118, 295 79 C317 42, 336 51, 316 86 C296 121, 331 118, 375 88" fill="none" stroke="#222" stroke-width="5" stroke-linecap="round" stroke-linejoin="round"/>
  <path d="M25 116 C82 112, 156 110, 229 113 C286 116, 336 111, 392 103" fill="none" stroke="#222" stroke-width="2" stroke-linecap="round" opacity="0.85"/>
</svg>
